<svg class="svg-icon" style="width: 1em; height: 1em;vertical-align: middle;fill: currentColor;overflow: hidden;" viewBox="0 0 1024 1024" version="1.1" xmlns="http://www.w3.org/2000/svg"><path d="M320 768v-128h128V576H320V448H256v128H128v64h128v128zM736 768c89.6 0 160-70.4 160-160S825.6 448 736 448 576 518.4 576 608s70.4 160 160 160z m0-256c51.2 0 96 44.8 96 96s-44.8 96-96 96-96-44.8-96-96 44.8-96 96-96z"  /><path d="M736 320H640v64h96C857.6 384 960 486.4 960 608S857.6 832 736 832h-448C166.4 832 64 729.6 64 608S166.4 384 288 384H448V128H384v192H288C128 320 0 448 0 608S128 896 288 896h448C896 896 1024 768 1024 608S896 320 736 320z"  /></svg>