<svg class="svg-icon" style="width: 1em; height: 1em;vertical-align: middle;fill: currentColor;overflow: hidden;" viewBox="0 0 1024 1024" version="1.1" xmlns="http://www.w3.org/2000/svg"><path d="M511.999488 59.815317c-245.465574 0-445.99675 201.010083-445.99675 447.043592 0 246.035556 200.531176 447.044616 445.99675 447.044616 245.466598 0 445.99675-201.00906 445.99675-447.044616C957.996239 260.8254 758.573303 59.815317 511.999488 59.815317L511.999488 59.815317zM511.999488 909.970944c-221.367737 0-402.165476-180.142823-402.165476-403.112034 0-222.968188 180.798762-403.111011 402.165476-403.111011 221.36876 0 402.165476 181.232644 402.165476 403.111011C914.164964 728.738299 734.444766 909.970944 511.999488 909.970944L511.999488 909.970944zM511.999488 909.970944"  /><path d="M653.913639 222.378763 370.086361 222.378763c-26.136264 0-47.323818 21.231557-47.323818 47.39545l0 474.15609c0 26.193569 21.188578 47.410799 47.323818 47.410799l283.827277 0c26.106588 0 47.295166-21.217231 47.295166-47.410799L701.208804 269.774213C701.207781 243.609297 680.048879 222.378763 653.913639 222.378763L653.913639 222.378763zM511.999488 743.931327c-26.136264 0-47.323818-21.23258-47.323818-47.427172 0-26.179242 21.187555-47.409776 47.323818-47.409776s47.295166 21.245883 47.295166 47.409776C559.294654 722.698746 538.107099 743.931327 511.999488 743.931327L511.999488 743.931327zM653.913639 601.695858 370.086361 601.695858 370.086361 269.774213l283.827277 0L653.913639 601.695858 653.913639 601.695858zM653.913639 601.695858"  /></svg>